<svg xmlns="http://www.w3.org/2000/svg" width="25" height="25" viewBox="0 0 25 25">
  <defs>
    <style>
      .cls-1 {
        fill: #f8f8f8;
        fill-rule: evenodd;
      }
    </style>
  </defs>
  <path id="cart.svg" class="cls-1" d="M1238.19,39.5a2.479,2.479,0,0,0,2.18-1.287l4.48-8.113a1.247,1.247,0,0,0-1.09-1.85h-18.5l-1.17-2.5H1220v2.5h2.5l4.5,9.488-1.69,3.05a2.506,2.506,0,0,0,2.19,3.712h15V42h-15l1.37-2.5h9.32Zm-11.74-8.75h15.19L1238.19,37h-8.78Zm1.05,15a2.5,2.5,0,1,0,2.5,2.5A2.5,2.5,0,0,0,1227.5,45.75Zm12.5,0a2.5,2.5,0,1,0,2.5,2.5A2.5,2.5,0,0,0,1240,45.75Z" transform="translate(-1220 -25.75)"/>
</svg>
