<svg id="footer-logo.svg" xmlns="http://www.w3.org/2000/svg" width="247.5" height="128.4" viewBox="0 0 247.5 128.4">
  <defs>
    <style>
      .cls-1 {
        fill: #004cff;
      }

      .cls-1, .cls-2 {
        fill-rule: evenodd;
      }

      .cls-2 {
        fill: #fff;
      }
    </style>
  </defs>
  <path id="Path_185" data-name="Path 185" class="cls-1" d="M1060.89,4813.41s-9.61,6.77-9.97,24.39c-0.26,13.03,6.38,19.44,9.87,21.9-5.13-45.54,39.61-104.74,82.25-78.97,22.55,13.64,14.31,39.77,1.11,35.36a17.865,17.865,0,0,1-4.65-2.27l-2.37,16.28,9.65-5.96a17.511,17.511,0,0,0,.48,10.76c-3.14-1.58-7.42-2.25-10.73-.74l-2.57,17.62c1.26,1.87,2.94,3.86,4.51,4.13,3.08,0.54,4.55-2.46,6.78-8.47s3.24-9.1,5.24-9.87a14.434,14.434,0,0,1,5.09-.54s-3.7,7.56-3.7,13.18,1.05,7.38,1.05,7.38-6.29.63-12.46,1.1-20.96,3.16-20.96,3.16,0.78-1.55,2.93-5.78c0.36-.7.71-1.39,1.05-2.05l6.26-42.61a11.443,11.443,0,0,0-.45-2.49c-0.67-1.6-3.25-2.33-3.25-2.33a22.539,22.539,0,0,0,.86-2.41l3.99-.57,0.02-.13,10.31-1.52-1.48,10.13c12.01-3.12,11.95-20.13.54-27.2-35.09-21.74-78.99,37.53-70.19,81.21h0a17.766,17.766,0,0,0,1.12,3.21,39.448,39.448,0,0,0,2.67,4.63c-17.45,3.95-33.36-15.19-31.66-29.76-3.6,4.87-7.91,11.62-8.71,22.07-0.95,12.34,5.83,14.38,5.83,14.38l-2.71.27s-13.78.12-14.25-7.82c-4.24,7.16-16.73,7-16.73,7s9.39-3.13,10.54-19.76c1.15-16.54,2.92-32.28-10.54-43.49,0,0,8.57,1.48,15.32-2.47s6.75-4.61,10.21-5.1a5.181,5.181,0,0,1,5.11,2.3s-7.74-1.48-8.57,15.81c-0.57,11.99-.9,25.16-2.31,34.75,3.81-8.78,10.22-19.19,13.25-25.16,4.34-8.54,3.91-12.92,2.93-14.56s-2.84-2.29-2.51-3.17C1039.35,4818.53,1055.81,4814.57,1060.89,4813.41Zm-40.51,24.06,1.27-1.45,1.44,1.26-1.26,1.45Zm205.11,30.44c-15.02,15.02-37.21,8.96-39.7-9.39-0.93-6.91,2.42-20.93,6.81-25.67-10.74-.82-14.92,16.92-14.06,25.43C1180.78,4880.44,1209.24,4888.65,1225.49,4867.91Zm-54.23-36.92c2.48-4.14,6.62-5.93,12.22-3.73l-4,6.79c-4.79-3.24-7.85.65-9.37,4.86-0.98,6.23-2.45,12.44,6.49,13.39,0.18,0.02.56-.14,0.55,0.05v2.43a208.921,208.921,0,0,0-22.84,2.85,59.023,59.023,0,0,0,2.61-6.21c0.74-2.06,1.71-5.92,2.43-8.95l4.72-31.83a27.8,27.8,0,0,0-.71-5.76c-0.67-1.59-3.25-2.32-3.25-2.32a21.971,21.971,0,0,0,.86-2.42l4.76-.68v-0.01l7.26-1.07,0.05-.13,20.52-2.4c0.2-.02-6.67,13.17-7.24,13.63s-2.05-.06-3.36-2.74-0.69-4.96-2-6.44-2.62-1.6-4.05-.46a8.167,8.167,0,0,0-1.44,2.07Zm66.39-39.41c-3.66-3.4-11.48-4.59-15.68-1.13-2.07,1.72-3.78,4.92-4.13,10.73-1.07,17.52,25.2,35.04,19.66,57.12-3.59,14.35-14.83,21.33-28.17,23.73,16.29,1.39,33.47-5.81,38.42-23.23,6.46-22.67-20.55-45.31-21.11-59.49-0.3-7.49,3.87-8.27,6.26-6.09s2.69,7.96,4.48,11.39,6.56,2.97,6.56,2.97-0.75-10.93,0-14.52a10.719,10.719,0,0,1,3.58-5.77S1239.02,4786.79,1237.65,4791.58Zm-34.81,54.26a6.416,6.416,0,0,0,3.3,2.49c3.08,0.54,4.54-2.46,6.78-8.47s3.23-9.09,5.24-9.87a14.263,14.263,0,0,1,5.08-.53s-3.7,7.55-3.7,13.17,1.06,7.38,1.06,7.38-6.3.64-12.46,1.1-20.96,3.16-20.96,3.16,0.77-1.54,2.93-5.78c1.15-2.25,2.27-4.42,3.07-5.95l5.92-40.23a8.562,8.562,0,0,0-.42-1.78,14.687,14.687,0,0,0-1.99-3.09l-0.02-1.62a27.8,27.8,0,0,0,3.44-.39v-0.05l10.32-1.52-0.01.06c2.47-.42,4.91-0.84,4.88-0.87l0.12,1.77a5.546,5.546,0,0,0-4.47,2.98,30.172,30.172,0,0,0-1.65,3.74Zm-117.4-35.48,4.54-.64v-0.05l10.31-1.52-3.65,25.34a25.21,25.21,0,0,1,10.68,11.4l5.71-38.79,10.31-1.52-8.35,57.84-10.45,1.38,1.76-11.96a18.7,18.7,0,0,0-2.04-6.09,17.325,17.325,0,0,0-8.38-6.99l-3.93,27.23-6.35.84v0.04l-9.62,1.47,0.32-1.56a5.719,5.719,0,0,0,4.23-3.38c0.65-1.65,2.19-7.68,3.41-12.63l1.98-13.47c-5.65.73-10.24,4.42-10.08,11.82-2.94-5.59-1.86-10.88,0-13.64,2.37-3.52,6.5-5.07,11.06-4.86l1.58-10.73a22.74,22.74,0,0,0-.65-4.79c-0.67-1.59-3.25-2.32-3.25-2.32A21.971,21.971,0,0,0,1085.44,4810.36Zm-61.09,8.74c-1.31,2.44-5.38,3.6-7.98,3.27a22.9,22.9,0,0,1,4.97,12.43S1023.11,4822.43,1024.35,4819.1Z" transform="translate(-1001.25 -4770.91)"/>
  <path id="Path_186" data-name="Path 186" class="cls-2" d="M1172.12,4876.87a5.086,5.086,0,0,1-1.44,2.56,4.472,4.472,0,0,1-2.58,1.23,2.058,2.058,0,0,1-2.01-.66,2.755,2.755,0,0,1-.29-2.56c0.05-.19.13-0.5,0.24-0.92a0.48,0.48,0,0,1,.3-0.4c0.12-.02.48-0.08,1.06-0.18s0.93-.16,1.06-0.18,0.15,0.13.07,0.43l-0.21.87c-0.21.84-.07,1.23,0.41,1.16a1.107,1.107,0,0,0,.83-0.94l0.28-.99a1.511,1.511,0,0,0-.64-1.23c-0.85-.88-1.31-1.37-1.39-1.49a2.141,2.141,0,0,1-.5-1.85l0.37-1.5a5.668,5.668,0,0,1,1.42-2.66,4.717,4.717,0,0,1,2.76-1.41,1.856,1.856,0,0,1,1.92.58,2.553,2.553,0,0,1,.2,2.13l-0.43,1.74a0.355,0.355,0,0,1-.27.31,18.138,18.138,0,0,1-2.03.28c-0.16.03-.22-0.05-0.18-0.23,0.05-.26.18-0.74,0.38-1.41a1.333,1.333,0,0,0,.04-0.71,0.283,0.283,0,0,0-.33-0.3,1.379,1.379,0,0,0-1.01,1.26l-0.22.91a1.769,1.769,0,0,0,.6,1.42c0.47,0.53.94,1.07,1.41,1.6a2.4,2.4,0,0,1,.48,1.93Zm-18.15,5.38a0.251,0.251,0,0,1-.17.33s-0.86.11-2.56,0.35c-0.1.01-.15-0.06-0.16-0.22-0.03-.51-0.07-1.73-0.12-3.65a0.628,0.628,0,0,0-.03-0.29,1.358,1.358,0,0,0-.12.31c-0.25.84-.57,2.11-0.94,3.78a0.331,0.331,0,0,1-.27.3c-1.22.16-1.83,0.25-1.83,0.25-0.16.02-.21-0.08-0.16-0.3l3.35-13.68a0.32,0.32,0,0,1,.25-0.27c0.5-.08,1.17-0.17,2.01-0.28,0.12,0,.16.07,0.12,0.23q-0.87,3.2-.99,3.75c-0.02.09-.01,0.12,0.03,0.12a0.362,0.362,0,0,0,.13-0.17c0.37-.76,1-2.04,1.91-3.85a0.436,0.436,0,0,1,.31-0.28c0.28-.03.68-0.09,1.2-0.17,0.62-.09.95-0.13,0.97-0.13,0.17-.03.24,0.04,0.2,0.21a0.76,0.76,0,0,1-.04.11c-0.39.54-1.15,1.68-2.28,3.43-1.16,1.81-1.74,2.74-1.73,2.81Q1153.35,4877.76,1153.97,4882.25Zm-17.52,2.7c0,0.07-.07.11-0.19,0.13-0.17.02-.5,0.07-0.97,0.13s-0.87.11-1.22,0.15a1.389,1.389,0,0,1-.15-1.08c0.02-.56.05-1.04,0.08-1.44,0.01-.08-0.05-0.11-0.17-0.09-0.48.06-.72,0.1-0.72,0.1a0.247,0.247,0,0,0-.2.14c-0.29.73-.64,1.58-1.06,2.54a0.345,0.345,0,0,1-.2.19l-2.29.31c-0.2.03-.26-0.03-0.19-0.18,1.01-2.45,2.02-4.92,3.03-7.39,1.97-4.74,3.04-7.14,3.2-7.17,0.68-.13,1.35-0.22,2.01-0.28q0.21-.015-0.33,6.78C1136.87,4880.18,1136.67,4882.57,1136.45,4884.95Zm-2.04-4.43a9.95,9.95,0,0,0,.14-1.95,2.534,2.534,0,0,0-.44.89c-0.14.38-.28,0.77-0.42,1.16-0.03.04,0.03,0.06,0.15,0.06a1.982,1.982,0,0,0,.36-0.04A0.249,0.249,0,0,0,1134.41,4880.52Zm-16.42,6.82a0.384,0.384,0,0,1-.35.27,40.984,40.984,0,0,1-4.68.62c-0.14,0-.18-0.1-0.13-0.31l3.37-13.75a0.3,0.3,0,0,1,.26-0.22c0.95-.14,2.5-0.35,4.62-0.62,0.2-.03.28,0.03,0.25,0.17-0.05.19-.13,0.51-0.23,0.95-0.15.56-.24,0.91-0.28,1.05a0.287,0.287,0,0,1-.26.25c-0.49.07-1.2,0.17-2.12,0.29a0.354,0.354,0,0,0-.33.24c-0.01.05-.12,0.47-0.32,1.25-0.17.65-.29,1.15-0.36,1.47a0.142,0.142,0,0,0,.16.2,13.882,13.882,0,0,0,1.72-.22c0.15-.02.22,0.04,0.2,0.18-0.04.21-.14,0.6-0.31,1.18-0.19.67-.29,1.07-0.32,1.19a0.317,0.317,0,0,1-.27.27s-0.56.08-1.67,0.23a0.4,0.4,0,0,0-.29.29,26.258,26.258,0,0,0-.72,2.78c-0.03.15,0.06,0.22,0.28,0.21,0.48-.07,1.16-0.16,2.04-0.28,0.2-.03.28,0.03,0.24,0.19C1118.26,4886.17,1118.09,4886.88,1117.99,4887.34Zm-16.27,2.11a0.375,0.375,0,0,1-.29.43c-0.24.06-.96,0.15-2.17,0.28-0.14.02-.18-0.12-0.13-0.44,0.14-.79.32-1.67,0.56-2.64q0.66-2.655-.33-2.52a0.362,0.362,0,0,0-.23.03,0.6,0.6,0,0,0-.22.4c-0.45,1.84-.86,3.46-1.21,4.86a0.608,0.608,0,0,1-.32.51,12.138,12.138,0,0,1-1.93.3c-0.14,0-.17-0.16-0.09-0.49l3.32-13.53a0.438,0.438,0,0,1,.41-0.36c0.69-.1,1.62-0.23,2.81-0.4a3.147,3.147,0,0,1,1.85.18,0.98,0.98,0,0,1,.55,1.23l-0.86,3.47a3.392,3.392,0,0,1-.91,1.55,3.236,3.236,0,0,1-.98.71,0.309,0.309,0,0,0-.18.13,0.185,0.185,0,0,0,.13.07,1.274,1.274,0,0,1,.64.33c0.46,0.4.47,1.53,0.02,3.38A11.706,11.706,0,0,0,1101.72,4889.45Zm-0.05-10.36c0.19-.78.01-1.11-0.55-1a2.2,2.2,0,0,1-.28.07,0.368,0.368,0,0,0-.25.33s-0.25,1.02-.75,3.08c-0.08.32-.04,0.48,0.13,0.47a1.115,1.115,0,0,0,.23-0.03,0.887,0.887,0,0,0,.65-0.46A10.185,10.185,0,0,0,1101.67,4879.09Zm-13.87-.95c-0.19.79-.35,1.39-0.46,1.8a0.4,0.4,0,0,1-.34.23c-0.56.08-1.33,0.19-2.3,0.34a0.34,0.34,0,0,0-.28.27l-0.76,3.1q-0.06.27,0.12,0.24c0.27-.03.9-0.12,1.89-0.29,0.17-.03.25,0.03,0.22,0.19a18.156,18.156,0,0,1-.56,2.3,0.245,0.245,0,0,1-.23.2q-0.675.075-1.92,0.27a0.354,0.354,0,0,0-.28.26c-0.12.41-.33,1.23-0.62,2.45-0.42,1.72-.64,2.62-0.66,2.69a0.364,0.364,0,0,1-.31.28,13.362,13.362,0,0,1-2.37.34c-0.16.01-.22-0.06-0.19-0.21t3.35-13.66a0.41,0.41,0,0,1,.37-0.3c0.57-.09,1.47-0.21,2.69-0.37,1.61-.21,2.42-0.32,2.42-0.32C1087.76,4877.93,1087.84,4877.99,1087.8,4878.14Z" transform="translate(-1001.25 -4770.91)"/>
  <path id="Path_187" data-name="Path 187" class="cls-2" d="M1073.51,4883.32l-1.22,2.9-69.82,8.38S1073.35,4883.01,1073.51,4883.32Zm0.91-4.42-1.22,2.89-69.82,8.39S1074.27,4878.59,1074.42,4878.9Zm-2.13,9.14-1.22,2.9-69.82,8.38S1072.14,4887.74,1072.29,4888.04Z" transform="translate(-1001.25 -4770.91)"/>
  <path id="Path_188" data-name="Path 188" class="cls-2" d="M1022.34,4785.8l-2.74,18.45c-0.62,1.56-3.69,1.51-3.61-.53l2.56-17.29c-2.97,0-5.77-1.31-8-4.89l3.1-1.93c3.21,5.16,8.93,2.69,13.62-.23,1.33-.82,2.52-1.64,3.59-2.38,0.23-.16.46-0.31,1.09-0.74a43.985,43.985,0,0,1,6.12-3.61,16.7,16.7,0,0,1,6.72-1.73c6.09-.12,8.91,3.85,10.18,7.02a8.847,8.847,0,0,0-3.05,2.28c-0.71-2.27-2.54-5.75-7.07-5.66a13.31,13.31,0,0,0-5.26,1.41,41.4,41.4,0,0,0-5.6,3.3l-1.06.73c-1.15.79-2.44,1.68-3.73,2.48A29.9,29.9,0,0,1,1022.34,4785.8Zm36.1-6.4h0a6.689,6.689,0,0,1,5.03,4.22,14.025,14.025,0,0,1,.93,7.54v0.01a14.042,14.042,0,0,1-2.92,7.03,6.615,6.615,0,0,1-5.96,2.71h0a6.685,6.685,0,0,1-5.04-4.21,14.148,14.148,0,0,1-.92-7.55l0.01-.06h0a14.065,14.065,0,0,1,2.9-6.97A6.674,6.674,0,0,1,1058.44,4779.4Zm-2.92,21.51h0m4.62-15.79a3.183,3.183,0,0,0-2.18-2.1h-0.01a3.217,3.217,0,0,0-2.68,1.44,10.347,10.347,0,0,0-2.1,5.18v0.05h0a10.4,10.4,0,0,0,.64,5.51,3.216,3.216,0,0,0,2.19,2.1h0a3.193,3.193,0,0,0,2.68-1.45,10.309,10.309,0,0,0,2.1-5.17h0A10.3,10.3,0,0,0,1060.14,4785.12Zm-2.18-2.1h0m0.48-3.62h0m-28.33,8.7-1.62,8.38,5.68-7.71,1.75-2.22,1.3,2.52,2.97,5.79,4.21-14.23c1.2-2.57,4.07-1.06,3.5,1.03l-4.27,14.43c-0.63,2.14-1.09,6.35-3.72,6.35l-4.64-9.19c-3.91,4.93-5.63,9.36-11.58,10.88l2.82-16.62C1027.8,4784.19,1030.6,4786.08,1030.11,4788.1Z" transform="translate(-1001.25 -4770.91)"/>
</svg>
